<?xml version="1.0" encoding="UTF-8" standalone="no"?>
<!-- Created with Inkscape (http://www.inkscape.org/) -->

<svg
   width="248.49614mm"
   height="255.07283mm"
   viewBox="0 0 248.49614 255.07283"
   version="1.1"
   id="svg5"
   inkscape:version="1.1.2 (0a00cf5339, 2022-02-04)"
   sodipodi:docname="logo-dark.svg"
   xmlns:inkscape="http://www.inkscape.org/namespaces/inkscape"
   xmlns:sodipodi="http://sodipodi.sourceforge.net/DTD/sodipodi-0.dtd"
   xmlns="http://www.w3.org/2000/svg"
   xmlns:svg="http://www.w3.org/2000/svg">
  <sodipodi:namedview
     id="namedview7"
     pagecolor="#ffffff"
     bordercolor="#666666"
     borderopacity="1.0"
     inkscape:pageshadow="2"
     inkscape:pageopacity="0.0"
     inkscape:pagecheckerboard="0"
     inkscape:document-units="mm"
     showgrid="false"
     inkscape:zoom="0.37593996"
     inkscape:cx="849.86975"
     inkscape:cy="355.1099"
     inkscape:window-width="1850"
     inkscape:window-height="1016"
     inkscape:window-x="70"
     inkscape:window-y="27"
     inkscape:window-maximized="1"
     inkscape:current-layer="g43585"
     fit-margin-top="0"
     fit-margin-left="0"
     fit-margin-right="0"
     fit-margin-bottom="0" />
  <defs
     id="defs2" />
  <g
     inkscape:groupmode="layer"
     id="layer10"
     inkscape:label="dark"
     style="display:inline"
     transform="translate(300.93397,25.955429)">
    <g
       inkscape:groupmode="layer"
       id="g43585"
       inkscape:label="dark circle"
       style="display:inline">
      <circle
         style="display:inline;opacity:1;fill:#f5f5f1;fill-opacity:1;fill-rule:evenodd;stroke:none;stroke-width:1.5875;stroke-miterlimit:4;stroke-dasharray:none;stroke-opacity:1"
         id="circle43583"
         cx="-176.6859"
         cy="98.292641"
         r="124.24807" />
    </g>
    <g
       inkscape:groupmode="layer"
       id="layer2"
       inkscape:label="dark body"
       style="display:inline;opacity:1">
      <path
         id="rect22206"
         style="fill:#22241c;fill-opacity:1;fill-rule:evenodd;stroke-width:0.15876"
         d="m -269.36611,62.260524 c -0.23627,-1.598623 -0.39829,-3.323444 -0.42056,-5.096791 0.0595,-2.644195 0.0241,-7.202674 1.24324,-10.314791 0.53198,-1.358041 1.30285,-2.440665 2.42474,-2.968621 0.64355,-0.344261 1.43309,-0.507689 2.29697,-0.579041 1.37789,-0.113807 2.94544,-0.03904 4.41027,0.0012 3.17203,0.08711 6.34406,0.174225 9.51609,0.261339 3.25136,0.09861 6.50989,0.223531 9.78567,0.370682 4.59619,0.206465 9.22899,0.380532 13.92324,0.656102 l 10.28072,0.392251 c 1.47394,0.05624 2.8718,-0.73119 4.2954,-1.244743 1.1989,-0.432491 2.39168,-0.938568 3.57758,-1.527398 v 0 -9e-6 c 1.82072,-0.779304 3.45274,-1.468258 5.03757,-2.100581 1.70892,-0.681835 3.36295,-1.297821 5.1395,-1.890229 1.28247,-0.427649 2.65242,-0.777032 4.14361,-1.155645 1.41574,-0.402723 2.54817,-0.659356 3.74537,-1.208519 1.70697,-0.783006 3.08433,-1.863709 4.80874,-3.18167 6.10071,-5.268837 14.11536,-11.820235 21.05885,-17.298735 0.81805,-0.645451 1.66094,-1.224324 2.41333,-1.869944 2.24052,-1.922553 4.40441,-3.5076701 6.24243,-4.8565118 1.07848,-0.7914477 2.85727,-2.1113592 3.63395,-2.6294996 1.07259,-0.6932503 1.78127,-1.14012 2.34386,-1.3361339 1.22468,-0.426695 2.83674,0.2552609 4.17095,1.2431289 1.34315,1.1247943 2.23272,2.1778099 2.87311,3.1233063 0.69612,1.0278091 0.8702,1.1801891 1.23999,1.9079791 l 37.00449,102.64777 c 0.85547,4.34651 2.04776,10.63841 2.76853,16.642 0.94886,7.90354 1.08053,15.30743 0.50249,22.20284 -1.02324,12.20626 -4.27041,22.81919 -9.1452,31.7899 -12.41074,22.83855 -35.37112,35.03291 -59.04134,35.77643 -17.96108,0.56419 -36.33087,-5.46485 -50.81028,-18.43954 -8.85182,-7.93191 -16.24967,-18.45966 -21.2113,-31.66376 -2.67399,-7.11613 -4.64038,-15.00961 -5.74542,-23.69304 -0.68067,-5.34874 -1.03453,-10.99721 -1.03009,-15.03111 z"
         sodipodi:nodetypes="ccscsscscsscccsscscssscscsccssssssscc" />
      <g
         id="g44999">
        <path
           id="path41117"
           style="fill:#ec5615;fill-opacity:1;fill-rule:evenodd;stroke-width:0.254588"
           d="m -187.35682,95.17817 a 39.662933,38.314179 0 0 1 -39.66294,38.31418 39.662933,38.314179 0 0 1 -39.66293,-38.31418 39.662933,38.314179 0 0 1 39.66293,-38.314179 39.662933,38.314179 0 0 1 39.66294,38.314179 z" />
        <ellipse
           style="fill:#ec5615;fill-opacity:1;fill-rule:evenodd;stroke-width:0.273906"
           id="ellipse41199"
           cx="-144.98595"
           cy="72.458046"
           rx="42.67239"
           ry="41.221294" />
      </g>
      <path
         style="display:inline;fill:#ff9d43;fill-opacity:1;stroke-width:0.40261"
         d="m -168.71725,143.15693 c 0.0929,-0.52113 0.4081,-2.27404 0.70031,-3.89532 0.8932,-4.9557 2.29933,-17.75601 2.26075,-20.58042 -0.0492,-3.60009 -0.47695,-3.97019 -5.51903,-4.77366 -6.70047,-1.06776 -7.70403,-0.97578 -9.76954,0.89521 -3.90016,3.53275 -6.22413,6.18336 -6.21182,7.08498 0.0119,0.88693 0.32844,1.43871 3.0771,5.36721 1.98043,2.83041 14.28089,16.79479 14.81934,16.82394 0.26065,0.0132 0.54998,-0.40076 0.64289,-0.92188 z"
         id="path41275"
         inkscape:transform-center-x="2.9209772"
         inkscape:transform-center-y="0.40771346" />
      <g
         id="g41906"
         transform="rotate(-5.1037123,18.516798,3645.8973)"
         style="fill:#bd7100;fill-opacity:1">
        <ellipse
           style="opacity:1;fill:#bd7100;fill-opacity:1;fill-rule:evenodd;stroke-width:0.332056"
           id="path41620"
           cx="169.45544"
           cy="211.67288"
           rx="18.633749"
           ry="12.952568" />
        <ellipse
           style="opacity:1;fill:#bd7100;fill-opacity:1;fill-rule:evenodd;stroke-width:0.332056"
           id="ellipse41726"
           cx="121.69277"
           cy="211.67288"
           rx="18.633749"
           ry="12.952568" />
      </g>
      <g
         id="g42491">
        <ellipse
           style="fill:#ffffff;fill-opacity:1;fill-rule:evenodd;stroke-width:0.264583"
           id="path41318"
           cx="-213.58287"
           cy="97.258781"
           rx="21.391705"
           ry="19.099401" />
        <ellipse
           style="fill:#ffffff;fill-opacity:1;fill-rule:evenodd;stroke-width:0.264583"
           id="ellipse41400"
           cx="-157.81514"
           cy="80.90564"
           rx="21.391705"
           ry="19.099401" />
        <ellipse
           style="fill:#000000;fill-opacity:1;fill-rule:evenodd;stroke-width:0.208841"
           id="path41460"
           cx="-208.03526"
           cy="100.32879"
           rx="12.343225"
           ry="11.359018" />
        <ellipse
           style="fill:#000000;fill-opacity:1;fill-rule:evenodd;stroke-width:0.208841"
           id="ellipse41542"
           cx="-157.396"
           cy="84.671974"
           rx="12.343225"
           ry="11.359018" />
      </g>
    </g>
  </g>
</svg>
