<svg xmlns="http://www.w3.org/2000/svg" viewBox="0 0 15 15.397">
  <circle cx="-293.434" cy="-18.455" r="7.5" fill="#f5f5f1" fill-rule="evenodd" transform="translate(300.934 25.955)"/>
  <path fill="#22241c" fill-rule="evenodd" d="M1.906 5.325a2.316 2.316 0 0 1-.026-.308c.004-.16.001-.434.075-.622.032-.082.079-.148.146-.18a.357.357 0 0 1 .14-.034c.082-.007.177-.003.265 0l.575.015c.196.006.393.014.59.023.278.012.558.023.84.04l.621.023c.09.003.174-.044.26-.075.072-.026.144-.057.216-.092.11-.047.208-.089.304-.127a3.605 3.605 0 0 1 .56-.184c.086-.024.154-.04.226-.073.103-.047.186-.112.29-.192A40.06 40.06 0 0 1 8.26 2.495c.05-.04.1-.074.145-.113.136-.116.266-.212.377-.293.065-.048.173-.128.22-.159a.787.787 0 0 1 .141-.08c.074-.026.171.015.252.074a.91.91 0 0 1 .173.189c.042.062.053.071.075.115l2.234 6.196c.051.263.123.643.167 1.005.057.477.065.924.03 1.34a4.833 4.833 0 0 1-.552 1.92c-.749 1.378-2.135 2.114-3.564 2.159a4.381 4.381 0 0 1-3.067-1.113 4.8 4.8 0 0 1-1.28-1.912 6.328 6.328 0 0 1-.347-1.43 7.678 7.678 0 0 1-.062-.907z"/>
  <g fill="#ec5615" fill-rule="evenodd" transform="matrix(.06036 0 0 .06036 18.165 1.567)">
    <path d="M-187.357 95.178a39.663 38.314 0 0 1-39.663 38.314 39.663 38.314 0 0 1-39.663-38.314 39.663 38.314 0 0 1 39.663-38.314 39.663 38.314 0 0 1 39.663 38.314z"/>
    <ellipse cx="-144.986" cy="72.458" rx="42.672" ry="41.221"/>
  </g>
  <path fill="#ff9d43" d="m7.981 10.208.042-.235c.054-.3.14-1.072.137-1.242-.003-.218-.029-.24-.333-.288-.405-.065-.465-.06-.59.054-.236.213-.376.373-.375.427 0 .054.02.087.186.324.12.171.862 1.014.894 1.016.016 0 .033-.024.039-.056z"/>
  <g fill="#bd7100" fill-rule="evenodd" transform="matrix(.06012 -.00537 .00537 .06012 -1.408 2.539)">
    <ellipse cx="169.455" cy="211.673" rx="18.634" ry="12.953"/>
    <ellipse cx="121.693" cy="211.673" rx="18.634" ry="12.953"/>
  </g>
  <g fill-rule="evenodd" transform="matrix(.06036 0 0 .06036 18.165 1.567)">
    <ellipse cx="-213.583" cy="97.259" fill="#fff" rx="21.392" ry="19.099"/>
    <ellipse cx="-157.815" cy="80.906" fill="#fff" rx="21.392" ry="19.099"/>
    <ellipse cx="-208.035" cy="100.329" rx="12.343" ry="11.359"/>
    <ellipse cx="-157.396" cy="84.672" rx="12.343" ry="11.359"/>
  </g>
</svg>